<mxfile host="app.diagrams.net" modified="2024-06-29T04:34:44.028Z" agent="Mozilla/5.0 (Macintosh; Intel Mac OS X 10_15_7) AppleWebKit/537.36 (KHTML, like Gecko) Chrome/126.0.0.0 Safari/537.36" etag="PEcWfMo-UpiQmu_yl3Kn" version="24.6.4" type="device">
  <diagram id="C5RBs43oDa-KdzZeNtuy" name="Page-1">
    <mxGraphModel dx="1157" dy="1071" grid="1" gridSize="10" guides="1" tooltips="1" connect="1" arrows="1" fold="1" page="1" pageScale="1" pageWidth="827" pageHeight="1169" math="0" shadow="0">
      <root>
        <mxCell id="WIyWlLk6GJQsqaUBKTNV-0" />
        <mxCell id="WIyWlLk6GJQsqaUBKTNV-1" parent="WIyWlLk6GJQsqaUBKTNV-0" />
        <mxCell id="2QH8b4eVulDjOsU4d9Za-1" style="edgeStyle=orthogonalEdgeStyle;rounded=0;orthogonalLoop=1;jettySize=auto;html=1;" edge="1" parent="WIyWlLk6GJQsqaUBKTNV-1" source="2QH8b4eVulDjOsU4d9Za-0">
          <mxGeometry relative="1" as="geometry">
            <mxPoint x="100" y="240" as="targetPoint" />
          </mxGeometry>
        </mxCell>
        <mxCell id="2QH8b4eVulDjOsU4d9Za-0" value="Define our variables&lt;div&gt;Number= int(input)&lt;/div&gt;&lt;div&gt;result= []&lt;/div&gt;&lt;div&gt;remainder= number %2&lt;/div&gt;&lt;div&gt;number = //2&lt;/div&gt;" style="rounded=1;whiteSpace=wrap;html=1;" vertex="1" parent="WIyWlLk6GJQsqaUBKTNV-1">
          <mxGeometry x="40" y="10" width="290" height="130" as="geometry" />
        </mxCell>
        <mxCell id="2QH8b4eVulDjOsU4d9Za-5" style="edgeStyle=orthogonalEdgeStyle;rounded=0;orthogonalLoop=1;jettySize=auto;html=1;" edge="1" parent="WIyWlLk6GJQsqaUBKTNV-1" source="2QH8b4eVulDjOsU4d9Za-2" target="2QH8b4eVulDjOsU4d9Za-3">
          <mxGeometry relative="1" as="geometry" />
        </mxCell>
        <mxCell id="2QH8b4eVulDjOsU4d9Za-2" value="Create &quot;while&quot; command for program to follow rules" style="rounded=1;whiteSpace=wrap;html=1;" vertex="1" parent="WIyWlLk6GJQsqaUBKTNV-1">
          <mxGeometry y="240" width="220" height="100" as="geometry" />
        </mxCell>
        <mxCell id="2QH8b4eVulDjOsU4d9Za-6" style="edgeStyle=orthogonalEdgeStyle;rounded=0;orthogonalLoop=1;jettySize=auto;html=1;" edge="1" parent="WIyWlLk6GJQsqaUBKTNV-1" source="2QH8b4eVulDjOsU4d9Za-3">
          <mxGeometry relative="1" as="geometry">
            <mxPoint x="370" y="420" as="targetPoint" />
          </mxGeometry>
        </mxCell>
        <mxCell id="2QH8b4eVulDjOsU4d9Za-9" style="edgeStyle=orthogonalEdgeStyle;rounded=0;orthogonalLoop=1;jettySize=auto;html=1;" edge="1" parent="WIyWlLk6GJQsqaUBKTNV-1" source="2QH8b4eVulDjOsU4d9Za-3">
          <mxGeometry relative="1" as="geometry">
            <mxPoint x="110" y="550" as="targetPoint" />
          </mxGeometry>
        </mxCell>
        <mxCell id="2QH8b4eVulDjOsU4d9Za-3" value="While number&amp;gt;0" style="rounded=1;whiteSpace=wrap;html=1;" vertex="1" parent="WIyWlLk6GJQsqaUBKTNV-1">
          <mxGeometry x="50" y="390" width="120" height="60" as="geometry" />
        </mxCell>
        <mxCell id="2QH8b4eVulDjOsU4d9Za-8" value="if not cancel program" style="rounded=1;whiteSpace=wrap;html=1;" vertex="1" parent="WIyWlLk6GJQsqaUBKTNV-1">
          <mxGeometry x="370" y="390" width="120" height="60" as="geometry" />
        </mxCell>
        <mxCell id="2QH8b4eVulDjOsU4d9Za-11" style="edgeStyle=orthogonalEdgeStyle;rounded=0;orthogonalLoop=1;jettySize=auto;html=1;" edge="1" parent="WIyWlLk6GJQsqaUBKTNV-1" source="2QH8b4eVulDjOsU4d9Za-10">
          <mxGeometry relative="1" as="geometry">
            <mxPoint x="110" y="740" as="targetPoint" />
          </mxGeometry>
        </mxCell>
        <mxCell id="2QH8b4eVulDjOsU4d9Za-10" value="attach the remainder yo the result by using append" style="rounded=1;whiteSpace=wrap;html=1;" vertex="1" parent="WIyWlLk6GJQsqaUBKTNV-1">
          <mxGeometry x="50" y="555" width="120" height="60" as="geometry" />
        </mxCell>
        <mxCell id="2QH8b4eVulDjOsU4d9Za-12" value="print&quot;result&quot;" style="rounded=1;whiteSpace=wrap;html=1;" vertex="1" parent="WIyWlLk6GJQsqaUBKTNV-1">
          <mxGeometry x="50" y="740" width="120" height="60" as="geometry" />
        </mxCell>
      </root>
    </mxGraphModel>
  </diagram>
</mxfile>
